<svg width="303" height="404" viewBox="0 0 303 404" fill="none" xmlns="http://www.w3.org/2000/svg">
<path fill-rule="evenodd" clip-rule="evenodd" d="M50.5002 50.4993V5.61093C50.5002 2.51196 53.013 0 56.1111 0H101L50.5002 50.4993ZM252.501 5.61093V50.4993L303.001 0H258.112C255.014 0 252.501 2.51196 252.501 5.61093ZM202.001 145.889V101L151.501 151.5L101.001 101V145.889C101.001 148.988 103.513 151.5 106.612 151.5H151.501V196.389C151.501 199.487 154.012 202 157.111 202H202.001L252.501 151.501V196.389C252.501 199.488 255.013 202 258.112 202H303L252.501 151.501H207.612C204.514 151.501 202.001 154.013 202.001 157.111L202.001 202L151.501 151.5H196.39C199.488 151.5 202.001 148.988 202.001 145.889ZM0 56.1111V100.999L50.5002 50.5002H5.61093C2.51285 50.5002 0 53.0121 0 56.1111ZM151.501 252.5L151.501 297.388C151.501 300.487 148.988 302.999 145.89 302.999H101L151.5 252.5H106.612C103.513 252.5 101.001 249.988 101.001 246.889V202.001L151.5 252.5L151.501 252.499L151.501 252.5ZM151.501 252.5L196.389 252.5C199.488 252.5 202 255.012 202 258.111V302.999L151.501 252.5ZM101 258.111V302.999L50.5011 252.5H95.3894C98.4884 252.5 101 255.012 101 258.111ZM202.001 100.999V56.1111C202.001 53.0121 204.514 50.5002 207.612 50.5002H252.501L202.001 100.999ZM297.389 252.5C300.488 252.5 303 255.012 303 258.111V302.999L252.501 252.5H297.389ZM297.389 353.5C300.488 353.5 303 350.988 303 347.889V303L252.5 353.5L202.001 303V347.889C202.001 350.988 204.513 353.5 207.612 353.5H252.5L252.501 353.5V398.389C252.501 401.488 255.013 404 258.112 404H303L252.501 353.5L297.389 353.5ZM303 145.889C303 148.988 300.488 151.5 297.389 151.5H252.501L303 101V145.889ZM202.001 246.889C202.001 249.988 204.513 252.5 207.612 252.5H252.5L202.001 202.001V246.889ZM0.000892639 145.889C0.000892639 148.988 2.51285 151.5 5.61183 151.5H50.5002L0.000892639 101V145.889ZM5.61183 353.5C2.51285 353.5 0.000892639 356.012 0.000892639 359.111V404L50.5002 353.5H5.61183ZM50.5002 207.611C50.5002 204.512 47.9882 202 44.8892 202H0.000892639L50.5002 252.5V207.611ZM202.001 359.111C202.001 356.012 199.489 353.5 196.39 353.5H151.501L202.001 404V359.111ZM95.3894 353.5C98.4884 353.5 101 356.012 101 359.111V404L50.5011 353.5H95.3894ZM196.39 50.5002C199.489 50.5002 202 47.9882 202 44.8892V0.00088501L151.501 50.5002V5.61093C151.501 2.51196 148.989 0 145.89 0H101.001L151.501 50.5002H196.39ZM50.5011 308.611C50.5011 305.512 53.013 303 56.112 303H101L50.5011 353.5V308.611ZM106.612 353.5C103.513 353.5 101.001 350.988 101.001 347.889V303L151.501 353.5H106.612ZM56.112 202C53.013 202 50.5011 199.488 50.5011 196.389V151.501L101 202H56.112ZM106.612 50.5002C103.513 50.5002 101.001 53.0121 101.001 56.1111V100.999L151.501 50.5002H106.612ZM50.5011 106.611C50.5011 103.512 53.013 101 56.112 101H101L50.5011 151.5V106.611Z" fill="white"/>
</svg>
